<svg xmlns="http://www.w3.org/2000/svg" xml:space="preserve" width="2048" height="2048" style="shape-rendering:geometricPrecision;text-rendering:geometricPrecision;image-rendering:optimizeQuality;fill-rule:evenodd;clip-rule:evenodd"><defs><clipPath id="id0"><path d="M1024-.001c565.541 0 1024 458.46 1024 1024s-458.461 1024-1024 1024c-565.541 0-1024-458.461-1024-1024 0-565.541 458.461-1024 1024-1024z"/></clipPath><style>.fil1{fill:#689f38}</style></defs><g id="Layer_x0020_1"><path d="M1024-.001c565.541 0 1024 458.46 1024 1024s-458.461 1024-1024 1024c-565.541 0-1024-458.461-1024-1024 0-565.541 458.461-1024 1024-1024z" style="fill:#8bc34a"/><g style="clip-path:url(#id0)"><g id="_466416712"><path id="_4625820161" class="fil1" d="M835.046 464 1970.93 1599.88v229.37L835.046 693.369z"/><path id="_462572632" class="fil1" d="M835.046 865.837 1970.93 2001.72v229.37L835.046 1095.21z"/><path id="_462574648" class="fil1" d="m1212.95 1354.63 1135.89 1135.88h-695.58L517.376 1354.63z"/><path id="_462587800" class="fil1" d="M1530.62 693.369 2666.5 1829.25v86.23L1530.62 779.601z"/><path id="_462573112" class="fil1" d="M1530.62 779.601 2666.5 1915.48v86.24L1530.62 865.837z"/><path id="_462577216" class="fil1" d="M1530.62 865.837 2666.5 2001.72h-695.57L835.046 865.837z"/><path id="_462575152" class="fil1" d="m1523.26 1285.1 1135.88 1135.88-310.3 298.9L1212.95 1584z"/><path id="_462574336" class="fil1" d="m1540.59 1268.4 1135.89 1135.88-17.34 16.7L1523.26 1285.1z"/><path id="_466416760" class="fil1" d="m1212.95 952.794 310.302 298.902 17.339 16.7-17.339 16.703L1212.95 1584v-229.368H517.372v-172.469h695.578v-229.37zM835.042 693.369h695.578V865.837H835.042v229.37L524.739 796.302 507.4 779.601l17.339-16.7 310.303-298.902v229.37z"/></g></g><path d="M1024-.001c565.541 0 1024 458.46 1024 1024s-458.461 1024-1024 1024c-565.541 0-1024-458.461-1024-1024 0-565.541 458.461-1024 1024-1024z" style="fill:none"/><path style="fill:#286d2c" d="M1530.62 693.369H709.85v172.468h820.77z"/><path style="fill:#2e7d32;fill-rule:nonzero" d="M835.046 464 524.743 762.901l-17.339 16.7 17.339 16.702 310.303 298.907z"/><path style="fill:#27652b" d="M709.85 779.601v86.236h820.77v-86.236z"/><path style="fill:#2d7430;fill-rule:nonzero" d="m507.404 779.601 17.339 16.702 310.303 298.907V779.601z"/><path style="fill:#0288d1" d="M517.376 1182.16h820.774v172.47H517.376z"/><path style="fill:#0277bd;fill-rule:nonzero" d="m1212.95 952.794 310.31 298.906 17.33 16.7-17.33 16.7-310.31 298.9z"/><path style="fill:#057ebf" d="M1338.15 1268.4v86.23H517.376v-86.23z"/><path style="fill:#056ead;fill-rule:nonzero" d="m1540.59 1268.4-17.33 16.7-310.31 298.9v-315.6z"/></g></svg>