<svg id="visual" viewBox="0 0 900 600" width="900" height="600" xmlns="http://www.w3.org/2000/svg" xmlns:xlink="http://www.w3.org/1999/xlink" version="1.1"><g stroke-width="1" stroke-linejoin="bevel"><path d="M428 301L472 275L396 184Z" fill="#000000" stroke="#000000"></path><path d="M472 275L501 229L396 184Z" fill="#000000" stroke="#000000"></path><path d="M538 134L381 131L396 184Z" fill="#957a00" stroke="#957a00"></path><path d="M396 184L328 315L428 301Z" fill="#7c6500" stroke="#7c6500"></path><path d="M292 207L328 315L396 184Z" fill="#c9a700" stroke="#c9a700"></path><path d="M381 131L292 207L396 184Z" fill="#957a00" stroke="#957a00"></path><path d="M501 229L538 134L396 184Z" fill="#ffd700" stroke="#ffd700"></path><path d="M428 301L531 369L472 275Z" fill="#7c6500" stroke="#7c6500"></path><path d="M472 275L531 369L501 229Z" fill="#957a00" stroke="#957a00"></path><path d="M501 229L621 177L538 134Z" fill="#3c2900" stroke="#3c2900"></path><path d="M382 405L531 369L428 301Z" fill="#957a00" stroke="#957a00"></path><path d="M328 315L382 405L428 301Z" fill="#4e3c00" stroke="#4e3c00"></path><path d="M638 308L621 177L501 229Z" fill="#ffd700" stroke="#ffd700"></path><path d="M262 0L262 88L381 131Z" fill="#e4bf00" stroke="#e4bf00"></path><path d="M381 131L262 88L292 207Z" fill="#4e3c00" stroke="#4e3c00"></path><path d="M262 88L208 166L292 207Z" fill="#3c2900" stroke="#3c2900"></path><path d="M292 207L175 297L328 315Z" fill="#ffd700" stroke="#ffd700"></path><path d="M328 315L274 432L382 405Z" fill="#7c6500" stroke="#7c6500"></path><path d="M531 369L638 308L501 229Z" fill="#645000" stroke="#645000"></path><path d="M621 177L593 80L538 134Z" fill="#000000" stroke="#000000"></path><path d="M538 134L435 0L381 131Z" fill="#4e3c00" stroke="#4e3c00"></path><path d="M530 0L435 0L538 134Z" fill="#4e3c00" stroke="#4e3c00"></path><path d="M175 297L274 432L328 315Z" fill="#4e3c00" stroke="#4e3c00"></path><path d="M382 405L472 482L531 369Z" fill="#000000" stroke="#000000"></path><path d="M422 491L472 482L382 405Z" fill="#e4bf00" stroke="#e4bf00"></path><path d="M531 369L624 421L638 308Z" fill="#c9a700" stroke="#c9a700"></path><path d="M333 519L422 491L382 405Z" fill="#957a00" stroke="#957a00"></path><path d="M208 166L175 297L292 207Z" fill="#e4bf00" stroke="#e4bf00"></path><path d="M638 308L676 188L621 177Z" fill="#3c2900" stroke="#3c2900"></path><path d="M621 177L685 83L593 80Z" fill="#2e1600" stroke="#2e1600"></path><path d="M593 80L530 0L538 134Z" fill="#c9a700" stroke="#c9a700"></path><path d="M472 482L624 421L531 369Z" fill="#ffd700" stroke="#ffd700"></path><path d="M638 308L686 333L676 188Z" fill="#c9a700" stroke="#c9a700"></path><path d="M624 421L686 333L638 308Z" fill="#645000" stroke="#645000"></path><path d="M435 0L262 0L381 131Z" fill="#af9100" stroke="#af9100"></path><path d="M262 88L191 65L208 166Z" fill="#c9a700" stroke="#c9a700"></path><path d="M175 297L203 429L274 432Z" fill="#7c6500" stroke="#7c6500"></path><path d="M274 432L333 519L382 405Z" fill="#af9100" stroke="#af9100"></path><path d="M262 0L191 65L262 88Z" fill="#2e1600" stroke="#2e1600"></path><path d="M208 166L78 169L175 297Z" fill="#3c2900" stroke="#3c2900"></path><path d="M685 83L585 0L593 80Z" fill="#af9100" stroke="#af9100"></path><path d="M593 80L585 0L530 0Z" fill="#7c6500" stroke="#7c6500"></path><path d="M192 507L333 519L274 432Z" fill="#7c6500" stroke="#7c6500"></path><path d="M490 600L621 504L472 482Z" fill="#957a00" stroke="#957a00"></path><path d="M676 188L685 83L621 177Z" fill="#7c6500" stroke="#7c6500"></path><path d="M713 0L685 83L815 113Z" fill="#3c2900" stroke="#3c2900"></path><path d="M262 0L210 0L191 65Z" fill="#af9100" stroke="#af9100"></path><path d="M624 421L702 396L686 333Z" fill="#4e3c00" stroke="#4e3c00"></path><path d="M686 333L809 327L676 188Z" fill="#af9100" stroke="#af9100"></path><path d="M685 517L702 396L624 421Z" fill="#3c2900" stroke="#3c2900"></path><path d="M210 0L134 78L191 65Z" fill="#e4bf00" stroke="#e4bf00"></path><path d="M191 65L134 78L208 166Z" fill="#af9100" stroke="#af9100"></path><path d="M472 482L621 504L624 421Z" fill="#2e1600" stroke="#2e1600"></path><path d="M490 600L472 482L422 491Z" fill="#e4bf00" stroke="#e4bf00"></path><path d="M134 78L78 169L208 166Z" fill="#4e3c00" stroke="#4e3c00"></path><path d="M132 509L192 507L203 429Z" fill="#af9100" stroke="#af9100"></path><path d="M203 429L192 507L274 432Z" fill="#3c2900" stroke="#3c2900"></path><path d="M74 371L203 429L175 297Z" fill="#2e1600" stroke="#2e1600"></path><path d="M78 169L61 272L175 297Z" fill="#af9100" stroke="#af9100"></path><path d="M305 600L377 600L333 519Z" fill="#3c2900" stroke="#3c2900"></path><path d="M333 519L377 600L422 491Z" fill="#645000" stroke="#645000"></path><path d="M377 600L490 600L422 491Z" fill="#c9a700" stroke="#c9a700"></path><path d="M61 272L74 371L175 297Z" fill="#645000" stroke="#645000"></path><path d="M815 113L685 83L676 188Z" fill="#3c2900" stroke="#3c2900"></path><path d="M685 83L713 0L585 0Z" fill="#ffd700" stroke="#ffd700"></path><path d="M192 507L305 600L333 519Z" fill="#7c6500" stroke="#7c6500"></path><path d="M621 504L685 517L624 421Z" fill="#4e3c00" stroke="#4e3c00"></path><path d="M599 600L685 517L621 504Z" fill="#e4bf00" stroke="#e4bf00"></path><path d="M74 371L132 509L203 429Z" fill="#2e1600" stroke="#2e1600"></path><path d="M192 507L161 600L305 600Z" fill="#c9a700" stroke="#c9a700"></path><path d="M832 429L809 327L702 396Z" fill="#000000" stroke="#000000"></path><path d="M702 396L809 327L686 333Z" fill="#957a00" stroke="#957a00"></path><path d="M490 600L599 600L621 504Z" fill="#4e3c00" stroke="#4e3c00"></path><path d="M809 327L825 193L676 188Z" fill="#c9a700" stroke="#c9a700"></path><path d="M825 193L815 113L676 188Z" fill="#af9100" stroke="#af9100"></path><path d="M134 78L0 129L78 169Z" fill="#2e1600" stroke="#2e1600"></path><path d="M78 169L0 228L61 272Z" fill="#3c2900" stroke="#3c2900"></path><path d="M210 0L75 0L134 78Z" fill="#3c2900" stroke="#3c2900"></path><path d="M0 129L0 228L78 169Z" fill="#7c6500" stroke="#7c6500"></path><path d="M61 272L0 283L74 371Z" fill="#ffd700" stroke="#ffd700"></path><path d="M74 371L0 428L132 509Z" fill="#e4bf00" stroke="#e4bf00"></path><path d="M0 228L0 283L61 272Z" fill="#000000" stroke="#000000"></path><path d="M75 0L0 129L134 78Z" fill="#000000" stroke="#000000"></path><path d="M113 600L161 600L132 509Z" fill="#957a00" stroke="#957a00"></path><path d="M132 509L161 600L192 507Z" fill="#2e1600" stroke="#2e1600"></path><path d="M833 487L702 396L685 517Z" fill="#7c6500" stroke="#7c6500"></path><path d="M833 487L832 429L702 396Z" fill="#957a00" stroke="#957a00"></path><path d="M900 266L900 224L825 193Z" fill="#3c2900" stroke="#3c2900"></path><path d="M900 67L810 0L815 113Z" fill="#af9100" stroke="#af9100"></path><path d="M815 113L810 0L713 0Z" fill="#645000" stroke="#645000"></path><path d="M0 283L0 428L74 371Z" fill="#645000" stroke="#645000"></path><path d="M0 528L113 600L132 509Z" fill="#e4bf00" stroke="#e4bf00"></path><path d="M599 600L732 600L685 517Z" fill="#af9100" stroke="#af9100"></path><path d="M900 266L825 193L809 327Z" fill="#e4bf00" stroke="#e4bf00"></path><path d="M825 193L900 67L815 113Z" fill="#3c2900" stroke="#3c2900"></path><path d="M900 411L900 266L809 327Z" fill="#957a00" stroke="#957a00"></path><path d="M775 600L833 487L685 517Z" fill="#ffd700" stroke="#ffd700"></path><path d="M832 429L900 411L809 327Z" fill="#e4bf00" stroke="#e4bf00"></path><path d="M75 0L0 0L0 129Z" fill="#957a00" stroke="#957a00"></path><path d="M732 600L775 600L685 517Z" fill="#ffd700" stroke="#ffd700"></path><path d="M900 523L900 411L833 487Z" fill="#7c6500" stroke="#7c6500"></path><path d="M833 487L900 411L832 429Z" fill="#4e3c00" stroke="#4e3c00"></path><path d="M900 224L900 67L825 193Z" fill="#4e3c00" stroke="#4e3c00"></path><path d="M0 428L0 528L132 509Z" fill="#000000" stroke="#000000"></path><path d="M900 67L900 0L810 0Z" fill="#000000" stroke="#000000"></path><path d="M0 528L0 600L113 600Z" fill="#645000" stroke="#645000"></path><path d="M775 600L900 523L833 487Z" fill="#e4bf00" stroke="#e4bf00"></path><path d="M775 600L900 600L900 523Z" fill="#ffd700" stroke="#ffd700"></path></g></svg>